<svg width="24" height="24" viewBox="0 0 24 24" fill="currentColor" xmlns="http://www.w3.org/2000/svg">
<path fill-rule="evenodd" clip-rule="evenodd" d="M2 4.75C2.41421 4.75 2.75 5.08579 2.75 5.5H2H1.25C1.25 5.08579 1.58579 4.75 2 4.75ZM22 5.5C22.75 5.5 22.75 5.50005 22.75 5.50015L22.75 19C22.75 19.7778 22.2278 20.3683 21.648 20.7795C21.0488 21.2045 20.2304 21.5565 19.2866 21.8397C17.3894 22.4088 14.8134 22.75 12 22.75C9.18661 22.75 6.61062 22.4088 4.71343 21.8397C3.76961 21.5565 2.95118 21.2045 2.35196 20.7795C1.77223 20.3683 1.25002 19.7778 1.25002 19L1.25 5.5C1.25 5.4999 1.25 5.5 2 5.5C2.75 5.5 2.75 5.4999 2.75 5.5L2.75002 19C2.75002 19.0506 2.78744 19.2494 3.21976 19.556C3.6326 19.8488 4.27863 20.1432 5.14445 20.403C6.86654 20.9196 9.29054 21.25 12 21.25C14.7095 21.25 17.1335 20.9196 18.8556 20.403C19.7214 20.1432 20.3674 19.8488 20.7803 19.556C21.2126 19.2494 21.25 19.0506 21.25 19L21.25 5.50057C21.25 5.50047 21.25 5.5 22 5.5ZM22 5.5L22.75 5.50015C22.7501 5.08593 22.4143 4.75 22.0001 4.75C21.5858 4.75 21.2501 5.08636 21.25 5.50057L22 5.5Z"/>
<path fill-rule="evenodd" clip-rule="evenodd" d="M2 13.75C2.41421 13.75 2.75 14.0858 2.75 14.5C2.75 14.5506 2.78743 14.7494 3.21975 15.056C3.63258 15.3488 4.27862 15.6432 5.14444 15.9029C6.86654 16.4196 9.29054 16.75 12 16.75C14.7095 16.75 17.1335 16.4196 18.8556 15.9029C19.7214 15.6432 20.3674 15.3488 20.7803 15.056C21.2126 14.7494 21.25 14.5506 21.25 14.5C21.25 14.0858 21.5858 13.75 22 13.75C22.4142 13.75 22.75 14.0858 22.75 14.5C22.75 15.2778 22.2278 15.8683 21.648 16.2795C21.0488 16.7045 20.2304 17.0565 19.2866 17.3397C17.3894 17.9088 14.8134 18.25 12 18.25C9.18661 18.25 6.61061 17.9088 4.71342 17.3397C3.7696 17.0565 2.95117 16.7045 2.35195 16.2795C1.77222 15.8683 1.25 15.2778 1.25 14.5C1.25 14.0858 1.58579 13.75 2 13.75Z" />
<path fill-rule="evenodd" clip-rule="evenodd" d="M2 9.25C2.41421 9.25 2.75 9.58579 2.75 10C2.75 10.0506 2.78743 10.2494 3.21975 10.556C3.63258 10.8488 4.27862 11.1432 5.14444 11.4029C6.86654 11.9196 9.29054 12.25 12 12.25C14.7095 12.25 17.1335 11.9196 18.8556 11.4029C19.7214 11.1432 20.3674 10.8488 20.7803 10.556C21.2126 10.2494 21.25 10.0506 21.25 10C21.25 9.58579 21.5858 9.25 22 9.25C22.4142 9.25 22.75 9.58579 22.75 10C22.75 10.7778 22.2278 11.3683 21.648 11.7795C21.0488 12.2045 20.2304 12.5565 19.2866 12.8397C17.3894 13.4088 14.8134 13.75 12 13.75C9.18661 13.75 6.61061 13.4088 4.71342 12.8397C3.7696 12.5565 2.95117 12.2045 2.35195 11.7795C1.77222 11.3683 1.25 10.7778 1.25 10C1.25 9.58579 1.58579 9.25 2 9.25Z"  />
<path fill-rule="evenodd" clip-rule="evenodd" d="M3.21975 4.44401C2.78743 4.75065 2.75 4.9494 2.75 5C2.75 5.0506 2.78743 5.24935 3.21975 5.55599C3.63259 5.84881 4.27862 6.1432 5.14444 6.40295C6.86654 6.91958 9.29054 7.25 12 7.25C14.7095 7.25 17.1335 6.91958 18.8556 6.40295C19.7214 6.1432 20.3674 5.84881 20.7803 5.55599C21.2126 5.24935 21.25 5.0506 21.25 5C21.25 4.9494 21.2126 4.75065 20.7803 4.44401C20.3674 4.15119 19.7214 3.8568 18.8556 3.59705C17.1335 3.08042 14.7095 2.75 12 2.75C9.29054 2.75 6.86654 3.08042 5.14444 3.59705C4.27862 3.8568 3.63259 4.15119 3.21975 4.44401ZM4.71342 2.16031C6.61061 1.59115 9.18661 1.25 12 1.25C14.8134 1.25 17.3894 1.59115 19.2866 2.16031C20.2304 2.44346 21.0488 2.79551 21.648 3.22052C22.2278 3.63171 22.75 4.22218 22.75 5C22.75 5.77782 22.2278 6.36829 21.648 6.77948C21.0488 7.20449 20.2304 7.55654 19.2866 7.83969C17.3894 8.40885 14.8134 8.75 12 8.75C9.18661 8.75 6.61061 8.40885 4.71342 7.83969C3.7696 7.55654 2.95117 7.20449 2.35195 6.77948C1.77222 6.36829 1.25 5.77782 1.25 5C1.25 4.22218 1.77222 3.63171 2.35195 3.22052C2.95117 2.79551 3.7696 2.44346 4.71342 2.16031Z"  />
</svg>
